<?xml version="1.0" encoding="utf-8"?>
<!-- Generator: Adobe Illustrator 15.0.0, SVG Export Plug-In . SVG Version: 6.00 Build 0)  -->
<!DOCTYPE svg PUBLIC "-//W3C//DTD SVG 1.1//EN" "http://www.w3.org/Graphics/SVG/1.1/DTD/svg11.dtd">
<svg version="1.1" id="Layer_1" xmlns="http://www.w3.org/2000/svg" xmlns:xlink="http://www.w3.org/1999/xlink" x="0px" y="0px"
	 width="262.992px" height="186.614px" viewBox="0 0 262.992 186.614" enable-background="new 0 0 262.992 186.614"
	 xml:space="preserve">
<g>
	<path fill="#1C75BC" d="M83.86,33.478c0,5.5-4.5,10-10.001,10h-7.665c-5.501,0-10.001-4.5-10.001-10v-6.13c0-5.5,4.5-10,10.001-10
		h7.665c5.501,0,10.001,4.5,10.001,10V33.478z"/>
</g>
<path fill="#1C75BC" d="M190.696,56.015v56.26c18.345,0,33.215-12.594,33.215-28.128C223.911,68.609,209.041,56.015,190.696,56.015z
	"/>
<path fill="#414042" d="M174.526,50.479h-11.332c-3.769,0-7.066,2.113-8.771,5.213l-19.563,76.96V60.479
	c0-5.501-4.5-10.001-10-10.001h-11.333c-3.787,0-7.1,2.134-8.796,5.259l-19.204,74.695V60.479c0-5.5-4.5-10-10.001-10H64.195
	c-5.501,0-10.001,4.5-10.001,10v84.999c0,5.5,4.5,10,10.001,10h11.331c3.852,0,7.205-2.209,8.874-5.419l19.126-76.152v71.571
	c0,5.5,4.501,10,10.001,10h11.333c3.897,0,7.283-2.265,8.932-5.539l19.401-75.173v70.712c0,5.5,4.501,10,10.001,10h11.332
	c5.5,0,10-4.5,10-10V60.479C184.526,54.979,180.026,50.479,174.526,50.479z"/>
</svg>
